<svg width="1512" height="300" viewBox="0 0 1512 300" fill="none" xmlns="http://www.w3.org/2000/svg">
<rect x="-2.5" width="1516" height="121" fill="#111111"/>
<rect x="177.5" y="240" width="30" height="30" fill="#111111"/>
<rect width="30" height="30" transform="matrix(-1 0 0 1 1320.5 240)" fill="#111111"/>
<rect x="417.5" y="121" width="30" height="30" fill="#111111"/>
<rect x="147.5" y="121" width="30" height="30" fill="#111111"/>
<rect width="30" height="30" transform="matrix(-1 0 0 1 1350.5 121)" fill="#111111"/>
<rect x="327.5" y="121" width="30" height="30" fill="#111111"/>
<rect width="30" height="30" transform="matrix(-1 0 0 1 1170.5 121)" fill="#111111"/>
<rect x="297.5" y="210" width="30" height="30" fill="#111111"/>
<rect width="30" height="30" transform="matrix(-1 0 0 1 1200.5 210)" fill="#111111"/>
<rect x="987.5" y="151" width="30" height="30" fill="#111111"/>
<rect x="1077.5" y="121" width="30" height="30" fill="#86C6FA"/>
<rect x="807.5" y="151" width="30" height="30" fill="#111111"/>
<rect x="1017.5" y="181" width="30" height="30" fill="#111111"/>
<rect x="477.5" y="180" width="30" height="30" fill="#111111"/>
<rect x="927.5" y="121" width="30" height="30" fill="#111111"/>
<rect x="657.5" y="151" width="30" height="30" fill="#111111"/>
<rect x="717.5" y="121" width="30" height="30" fill="#111111"/>
<rect x="417.5" y="240" width="30" height="30" fill="#111111"/>
<rect x="237.5" y="121" width="30" height="30" fill="#111111"/>
<rect width="30" height="30" transform="matrix(-1 0 0 1 1260.5 121)" fill="#111111"/>
<rect x="387.5" y="210" width="30" height="30" fill="#111111"/>
<rect x="267.5" y="151" width="30" height="30" fill="#111111"/>
<rect width="30" height="30" transform="matrix(-1 0 0 1 1230.5 151)" fill="#111111"/>
<rect x="507.5" y="151" width="30" height="30" fill="#111111"/>
<rect x="207.5" y="180" width="30" height="30" fill="#111111"/>
<rect width="30" height="30" transform="matrix(-1 0 0 1 1290.5 180)" fill="#111111"/>
<rect x="117.5" y="151" width="30" height="30" fill="#111111"/>
<rect width="30" height="30" transform="matrix(-1 0 0 1 1380.5 151)" fill="#111111"/>
<rect x="117.5" y="270" width="30" height="30" fill="#111111"/>
<rect width="30" height="30" transform="matrix(-1 0 0 1 1380.5 270)" fill="#111111"/>
<rect x="87.5" y="210" width="30" height="30" fill="#111111"/>
<rect width="30" height="30" transform="matrix(-1 0 0 1 1410.5 210)" fill="#111111"/>
<rect x="27.5" y="179" width="30" height="30" fill="#111111"/>
<rect width="30" height="30" transform="matrix(-1 0 0 1 1470.5 179)" fill="#111111"/>
<rect x="-2.5" y="150" width="30" height="30" fill="#111111"/>
<rect width="30" height="30" transform="matrix(-1 0 0 1 1500.5 150)" fill="#111111"/>
<rect x="117.5" y="91" width="30" height="30" fill="#FFACAC"/>
<rect width="30" height="30" transform="matrix(-1 0 0 1 1380.5 91)" fill="#FFACAC"/>
<rect x="387.5" y="91" width="30" height="30" fill="#EDDCA6"/>
<rect x="537.5" y="60" width="30" height="30" fill="#AEDFAF"/>
<rect x="597.5" y="91" width="30" height="30" fill="#FFACAC"/>
<rect x="837.5" y="30" width="30" height="30" fill="#EDDCA6"/>
<rect x="957.5" y="121" width="30" height="30" fill="#EDDCA6"/>
<rect x="957.5" y="91" width="30" height="30" fill="#FFACAC"/>
<rect x="777.5" y="121" width="30" height="30" fill="#86C6FA"/>
<rect x="807.5" y="60" width="30" height="30" fill="#86C6FA"/>
<rect x="567.5" y="30" width="30" height="30" fill="#86C6FA"/>
<rect x="687.5" y="91" width="30" height="30" fill="#EDDCA6"/>
<rect x="747.5" width="30" height="30" fill="#AEDFAF"/>
<rect x="867.5" y="91" width="30" height="30" fill="#AEDFAF"/>
<rect x="357.5" y="60" width="30" height="30" fill="#86C6FA"/>
<rect x="27.5" y="30" width="30" height="30" fill="#EDDCA6"/>
<rect width="30" height="30" transform="matrix(-1 0 0 1 1470.5 30)" fill="#EDDCA6"/>
<rect x="627.5" y="121" width="30" height="30" fill="#111111"/>
<rect x="477.5" y="121" width="30" height="30" fill="#FFACAC"/>
<rect x="297.5" y="121" width="30" height="30" fill="#AEDFAF"/>
<rect width="30" height="30" transform="matrix(-1 0 0 1 1200.5 121)" fill="#AEDFAF"/>
<rect x="207.5" y="91" width="30" height="30" fill="#EDDCA6"/>
<rect x="87.5" y="61" width="30" height="30" fill="#86C6FA"/>
<rect width="30" height="30" transform="matrix(-1 0 0 1 1410.5 61)" fill="#86C6FA"/>
<rect x="57.5" y="91" width="30" height="30" fill="#AEDFAF"/>
<rect width="30" height="30" transform="matrix(-1 0 0 1 1440.5 91)" fill="#AEDFAF"/>
<rect x="-2.5" y="60" width="30" height="30" fill="#FFACAC"/>
<rect width="30" height="30" transform="matrix(-1 0 0 1 1500.5 60)" fill="#FFACAC"/>
</svg>
